<svg xmlns="http://www.w3.org/2000/svg" xmlns:xlink="http://www.w3.org/1999/xlink" width="500" zoomAndPan="magnify" viewBox="0 0 375 374.999991" height="500" preserveAspectRatio="xMidYMid meet" version="1.0"><defs><g/></defs><path stroke-linecap="butt" transform="matrix(0.75, 0, 0, 0.75, 176.357892, -29.268528)" fill="none" stroke-linejoin="miter" d="M 234.908243 350.811186 C 233.335326 350.811186 231.611367 350.785144 229.736367 350.722644 C 227.866575 350.660144 225.960325 350.634102 224.022825 350.634102 L 224.022825 365.326812 C 220.517617 365.326812 216.710325 365.264312 212.595741 365.14452 C 208.486366 365.024728 204.371782 364.899728 200.262407 364.779937 C 196.147823 364.660145 192.278031 364.597645 188.653031 364.597645 L 172.324905 364.597645 C 169.908238 364.597645 167.460322 364.660145 164.981155 364.779937 C 162.501988 364.899728 160.080113 365.024728 157.725946 365.14452 C 155.366571 365.264312 153.220737 365.326812 151.283237 365.326812 C 149.350945 361.941395 147.293654 358.430978 145.11657 354.805978 C 142.939487 351.175769 140.762403 348.154936 138.58532 345.73306 C 133.991569 340.415352 129.272819 334.910143 124.439485 329.227851 C 119.600943 323.545559 114.824901 318.10285 110.106151 312.899725 C 109.142609 311.5716 107.778026 309.878891 106.028026 307.8216 C 104.272817 305.769516 102.335317 303.498683 100.220734 301.019516 C 98.10615 298.540349 95.929067 296.00389 93.689483 293.399724 C 91.455108 290.800765 89.309275 288.290348 87.251983 285.873681 L 87.616566 310.722641 L 87.616566 317.800767 C 87.616566 318.889309 87.736358 319.493475 87.975941 319.613267 C 88.705108 319.85285 96.866567 320.279934 112.465526 320.8841 L 112.465526 350.811186 C 109.199901 350.811186 105.574901 350.691394 101.580109 350.451811 L 101.580109 365.326812 C 97.590525 365.326812 93.116567 365.233062 88.158233 365.05077 C 83.199899 364.873687 78.090524 364.722645 72.830107 364.597645 C 67.56969 364.477853 62.340523 364.389312 57.137398 364.326812 C 51.939481 364.26952 47.100939 364.23827 42.62698 364.23827 C 38.757188 364.23827 34.528021 364.295562 29.929062 364.420562 C 25.335312 364.540353 20.741562 364.628895 16.142603 364.691395 C 11.548853 364.748687 7.163436 364.873687 2.991561 365.05077 C -1.180315 365.233062 -4.836565 365.384103 -7.982398 365.509103 L -7.982398 335.57681 C -5.805315 335.457018 -3.810523 335.332018 -1.992815 335.212226 C -0.180315 335.092435 1.449894 334.972643 2.903019 334.852851 L 2.903019 321.066392 C 6.048853 320.8216 8.798853 320.639309 11.158228 320.519517 C 13.512395 320.399725 15.538437 320.217434 17.231145 319.97785 C 17.595728 313.930975 17.866562 308.670558 18.048853 304.196599 C 18.231145 299.722641 18.319687 296.092432 18.319687 293.311182 L 18.319687 240.707012 C 18.080103 233.207011 17.897812 225.738261 17.77802 218.305969 C 17.658228 210.868468 17.475937 203.337218 17.231145 195.717426 C 17.111353 191.488259 17.048853 188.040342 17.048853 185.378883 L 17.048853 179.394508 C 17.048853 178.066383 17.173853 177.154924 17.413437 176.670549 C 17.533228 176.430966 17.658228 176.311174 17.77802 176.311174 L 17.960312 176.311174 C 16.74677 175.946591 8.100936 175.342424 -7.982398 174.498674 L -7.982398 144.201797 C -6.409482 144.321589 -4.716773 144.415339 -2.904273 144.47263 C -1.086565 144.53513 0.845727 144.62888 2.903019 144.748672 L 2.903019 129.69138 C 6.048853 129.811171 9.705103 129.962213 13.876978 130.144505 C 18.048853 130.326796 22.43427 130.477838 27.028021 130.59763 C 31.621771 130.717421 36.246771 130.811171 40.903022 130.868463 C 45.559272 130.930963 49.824897 130.962213 53.694689 130.962213 L 68.022815 130.962213 C 73.22594 130.962213 78.455107 130.868463 83.715524 130.69138 C 88.975941 130.509088 94.085317 130.358046 99.04365 130.233046 C 104.001984 130.113255 108.475943 129.993463 112.465526 129.873671 L 112.465526 160.16534 C 110.288443 160.285132 108.293651 160.347632 106.481151 160.347632 C 104.663442 160.347632 103.033234 160.410132 101.580109 160.529923 L 101.580109 174.675757 C 98.439484 174.800757 95.746775 174.889299 93.5124 174.951799 C 91.272817 175.009091 89.246775 175.040341 87.434275 175.040341 C 87.434275 177.821591 87.403025 180.873675 87.340525 184.2018 C 87.283233 187.524717 87.251983 191.243467 87.251983 195.35805 L 87.251983 219.30076 C 94.142608 212.649718 102.429067 204.488259 112.100943 194.811175 C 115.246776 191.54555 118.694693 188.040342 122.444694 184.290341 C 126.189485 180.540341 129.580111 177.035133 132.600944 173.769507 C 135.866569 170.503882 138.58532 167.753882 140.762403 165.519507 C 142.939487 163.279923 144.751987 161.373673 146.205112 159.800756 C 145.965528 158.35284 145.751987 156.41534 145.569695 153.998673 C 145.387403 151.582006 145.11657 148.498672 144.751987 144.748672 L 157.090529 144.748672 C 156.845737 143.295547 156.637404 141.389297 156.455112 139.03513 C 156.272821 136.675755 156.001987 133.743463 155.637404 130.233046 L 175.231155 130.233046 C 177.52803 130.358046 179.460322 130.415338 181.033239 130.415338 L 185.022823 130.415338 L 227.835325 130.233046 L 227.835325 159.076798 C 225.658242 159.19659 223.720742 159.25909 222.028033 159.25909 C 220.335325 159.25909 218.642617 159.32159 216.949908 159.441381 L 216.949908 173.587216 C 211.387408 173.712216 206.668657 173.920549 202.798865 174.222632 C 198.929074 174.524716 195.637407 175.009091 192.913448 175.675758 C 190.194698 176.342424 187.778031 177.279924 185.658239 178.488258 C 183.543656 179.696591 181.335322 181.207008 179.038447 183.019508 C 176.017614 185.561175 171.481155 189.399717 165.43428 194.540342 C 159.387404 199.680967 151.767612 206.420551 142.580112 214.764302 L 133.142611 224.019511 C 134.356153 225.347636 135.621778 226.769511 136.955111 228.279928 C 138.283236 229.790344 139.673861 231.457011 141.126986 233.269511 C 142.095737 234.358053 143.121778 235.535136 144.21032 236.80597 C 145.298862 238.076803 146.387403 239.373678 147.475945 240.707012 L 147.475945 240.52472 C 152.798862 246.811179 158.085321 253.071596 163.345738 259.300763 C 168.606155 265.524722 173.897822 271.722639 179.220739 277.894514 C 186.475948 286.358056 192.580115 293.430974 197.538448 299.113266 C 202.496782 304.800766 206.246782 309.029933 208.788449 311.811183 C 210.720741 313.868475 212.387408 315.472642 213.778033 316.618475 C 215.168658 317.769517 216.710325 318.644517 218.403033 319.248684 C 220.095742 319.85285 222.210325 320.217434 224.751992 320.337225 C 227.28845 320.462225 230.673867 320.519517 234.908243 320.519517 Z M 226.199909 329.227851 C 223.059283 329.227851 220.548867 329.196601 218.673867 329.139309 C 216.798866 329.076809 215.106158 328.680976 213.595741 327.957018 C 212.080116 327.233059 210.512408 326.082017 208.876991 324.509101 C 207.246782 322.941392 205.100949 320.701809 202.43949 317.800767 C 199.778032 315.019517 196.028032 310.816391 191.18949 305.191391 C 186.356156 299.571599 180.126989 292.342432 172.507197 283.514306 L 140.762403 246.326804 C 136.168653 240.764303 132.147819 235.957011 128.699902 231.910136 C 125.251985 227.858053 122.382194 224.378886 120.085318 221.477844 L 147.658237 193.904925 C 156.970737 185.321591 164.679071 178.394508 170.783238 173.134091 C 176.892614 167.873674 181.455114 164.035132 184.481156 161.618465 C 187.501989 159.19659 190.100948 157.295548 192.278031 155.904923 C 194.455115 154.514298 196.757198 153.425756 199.173865 152.639298 C 201.590532 151.852839 204.371782 151.337214 207.517616 151.097631 C 210.663449 150.852839 214.533241 150.670548 219.126992 150.550756 L 219.126992 138.94138 L 185.022823 139.123672 C 183.330114 139.123672 180.850947 139.092422 177.585322 139.03513 C 174.319697 138.97263 170.210322 138.94138 165.251988 138.94138 C 165.491571 140.87888 165.647821 142.66013 165.705113 144.295547 C 165.767613 145.925756 165.798863 147.285131 165.798863 148.373672 L 165.798863 150.191381 L 152.918654 165.061173 C 151.58532 166.63409 149.77282 168.628882 147.475945 171.050757 C 145.17907 173.467424 142.33532 176.430966 138.949903 179.936174 L 118.272818 200.977843 C 110.168651 209.201801 103.095734 216.248677 97.048859 222.113261 C 91.001983 227.977844 85.616566 232.722636 80.903024 236.352845 L 78.543649 235.446595 L 78.543649 195.35805 C 78.543649 177.582008 79.090524 165.608049 80.179066 159.441381 C 80.663441 157.748673 81.267608 156.389298 81.991566 155.358048 C 82.715524 154.332006 83.897816 153.576798 85.528024 153.092423 C 87.163441 152.608048 89.429066 152.274714 92.330108 152.092423 C 95.23115 151.910131 99.04365 151.759089 103.757192 151.639298 L 103.757192 138.94138 C 88.038441 139.425755 71.35094 139.670547 53.694689 139.670547 C 37.97073 139.670547 23.944687 139.425755 11.611353 138.94138 L 11.611353 151.639298 C 22.251979 152.243464 28.658229 152.847631 30.835313 153.451798 C 32.168646 153.696589 33.194688 154.212214 33.918646 154.998673 C 34.647813 155.779923 35.189479 157.144506 35.554063 159.076798 C 35.918646 161.014298 36.18948 163.733048 36.371771 167.238257 C 36.548855 170.748674 36.705105 175.342424 36.824896 181.024716 L 37.913438 226.014302 L 37.913438 278.800764 C 37.913438 285.087223 37.486355 295.425765 36.642605 309.816391 C 36.278021 314.41535 35.944688 317.983059 35.642605 320.519517 C 35.340521 323.061184 34.465521 324.904934 33.012396 326.050767 C 31.564479 327.201809 29.205104 327.957018 25.939479 328.321601 C 22.673854 328.680976 17.897812 328.988268 11.611353 329.227851 L 11.611353 341.925768 C 23.944687 341.321602 37.913438 341.019518 53.512397 341.019518 C 71.28844 341.019518 88.038441 341.321602 103.757192 341.925768 L 103.757192 329.227851 C 98.194692 329.108059 93.871775 328.925768 90.788441 328.680976 C 87.705108 328.441393 85.679066 328.076809 84.710316 327.592434 C 83.501983 327.113267 82.533233 326.566392 81.809274 325.962226 C 81.085316 325.358059 80.512399 324.483059 80.085316 323.332017 C 79.663441 322.180975 79.361357 320.613267 79.179066 318.613267 C 78.996774 316.618475 78.908232 314.050767 78.908232 310.904933 L 78.543649 282.06639 L 78.543649 249.415346 C 78.543649 248.082012 78.637399 247.087221 78.814482 246.420554 C 78.996774 245.753887 79.241566 245.269512 79.543649 244.967429 C 79.845732 244.665345 80.179066 244.514304 80.538441 244.514304 L 81.626983 244.514304 C 83.080108 244.514304 84.653024 245.061179 86.345733 246.14972 C 88.038441 247.238262 90.455108 249.472637 93.600942 252.858054 C 93.720733 252.983054 94.444692 253.858054 95.778025 255.488263 C 97.10615 257.12368 98.861359 259.149721 101.038442 261.566388 C 103.215526 263.983055 105.600942 266.707013 108.205109 269.727847 C 110.804068 272.753889 113.340526 275.743472 115.819693 278.707014 C 118.29886 281.670556 120.600943 284.394515 122.715527 286.873681 C 124.83011 289.352848 126.491569 291.31639 127.705111 292.764307 L 156.001987 325.420559 C 158.663446 328.321601 160.866571 331.160143 162.62178 333.941393 C 164.376988 336.727851 165.918655 339.384102 167.24678 341.925768 C 170.99678 341.680977 174.71553 341.529935 178.403031 341.472643 C 182.090531 341.410143 185.929073 341.378893 189.923865 341.378893 C 195.121782 341.378893 200.715532 341.410143 206.699907 341.472643 C 212.689491 341.529935 219.189492 341.680977 226.199909 341.925768 Z M 226.199909 329.227851 " stroke="#804d00" stroke-width="27.86265" stroke-opacity="1" stroke-miterlimit="4"/><g fill="#ffbd59" fill-opacity="1"><g transform="translate(176.357892, 261.731453)"><g><path d="M 176.1875 -27.890625 C 175 -27.890625 173.703125 -27.910156 172.296875 -27.953125 C 170.890625 -28.003906 169.460938 -28.03125 168.015625 -28.03125 L 168.015625 -17 C 165.390625 -17 162.535156 -17.046875 159.453125 -17.140625 C 156.367188 -17.234375 153.285156 -17.320312 150.203125 -17.40625 C 147.117188 -17.5 144.210938 -17.546875 141.484375 -17.546875 L 129.25 -17.546875 C 127.4375 -17.546875 125.597656 -17.5 123.734375 -17.40625 C 121.878906 -17.320312 120.066406 -17.234375 118.296875 -17.140625 C 116.523438 -17.046875 114.914062 -17 113.46875 -17 C 112.007812 -19.539062 110.460938 -22.171875 108.828125 -24.890625 C 107.203125 -27.617188 105.570312 -29.890625 103.9375 -31.703125 C 100.488281 -35.691406 96.953125 -39.816406 93.328125 -44.078125 C 89.703125 -48.335938 86.117188 -52.421875 82.578125 -56.328125 C 81.859375 -57.316406 80.835938 -58.582031 79.515625 -60.125 C 78.203125 -61.675781 76.75 -63.378906 75.15625 -65.234375 C 73.570312 -67.097656 71.941406 -69.003906 70.265625 -70.953125 C 68.585938 -72.898438 66.976562 -74.78125 65.4375 -76.59375 L 65.703125 -57.953125 L 65.703125 -52.65625 C 65.703125 -51.832031 65.796875 -51.378906 65.984375 -51.296875 C 66.523438 -51.109375 72.644531 -50.789062 84.34375 -50.34375 L 84.34375 -27.890625 C 81.894531 -27.890625 79.175781 -27.976562 76.1875 -28.15625 L 76.1875 -17 C 73.195312 -17 69.84375 -17.066406 66.125 -17.203125 C 62.40625 -17.347656 58.570312 -17.460938 54.625 -17.546875 C 50.675781 -17.640625 46.75 -17.707031 42.84375 -17.75 C 38.945312 -17.800781 35.320312 -17.828125 31.96875 -17.828125 C 29.070312 -17.828125 25.898438 -17.78125 22.453125 -17.6875 C 19.003906 -17.59375 15.554688 -17.523438 12.109375 -17.484375 C 8.660156 -17.441406 5.367188 -17.347656 2.234375 -17.203125 C -0.890625 -17.066406 -3.628906 -16.957031 -5.984375 -16.875 L -5.984375 -39.3125 C -4.347656 -39.40625 -2.847656 -39.492188 -1.484375 -39.578125 C -0.128906 -39.671875 1.085938 -39.765625 2.171875 -39.859375 L 2.171875 -50.203125 C 4.535156 -50.378906 6.597656 -50.515625 8.359375 -50.609375 C 10.128906 -50.703125 11.648438 -50.835938 12.921875 -51.015625 C 13.191406 -55.546875 13.394531 -59.488281 13.53125 -62.84375 C 13.664062 -66.207031 13.734375 -68.929688 13.734375 -71.015625 L 13.734375 -110.46875 C 13.554688 -116.09375 13.421875 -121.691406 13.328125 -127.265625 C 13.242188 -132.847656 13.109375 -138.492188 12.921875 -144.203125 C 12.828125 -147.378906 12.78125 -149.96875 12.78125 -151.96875 L 12.78125 -156.453125 C 12.78125 -157.453125 12.875 -158.132812 13.0625 -158.5 C 13.15625 -158.675781 13.242188 -158.765625 13.328125 -158.765625 L 13.46875 -158.765625 C 12.5625 -159.035156 6.078125 -159.488281 -5.984375 -160.125 L -5.984375 -182.84375 C -4.804688 -182.757812 -3.535156 -182.691406 -2.171875 -182.640625 C -0.816406 -182.597656 0.628906 -182.53125 2.171875 -182.4375 L 2.171875 -193.734375 C 4.535156 -193.640625 7.28125 -193.523438 10.40625 -193.390625 C 13.53125 -193.253906 16.816406 -193.140625 20.265625 -193.046875 C 23.710938 -192.960938 27.179688 -192.894531 30.671875 -192.84375 C 34.171875 -192.800781 37.367188 -192.78125 40.265625 -192.78125 L 51.015625 -192.78125 C 54.921875 -192.78125 58.84375 -192.847656 62.78125 -192.984375 C 66.726562 -193.117188 70.5625 -193.226562 74.28125 -193.3125 C 78 -193.40625 81.351562 -193.5 84.34375 -193.59375 L 84.34375 -170.875 C 82.71875 -170.78125 81.222656 -170.734375 79.859375 -170.734375 C 78.492188 -170.734375 77.269531 -170.691406 76.1875 -170.609375 L 76.1875 -159.984375 C 73.832031 -159.898438 71.8125 -159.832031 70.125 -159.78125 C 68.445312 -159.738281 66.929688 -159.71875 65.578125 -159.71875 C 65.578125 -157.632812 65.550781 -155.34375 65.5 -152.84375 C 65.457031 -150.351562 65.4375 -147.566406 65.4375 -144.484375 L 65.4375 -126.53125 C 70.601562 -131.507812 76.816406 -137.628906 84.078125 -144.890625 C 86.429688 -147.335938 89.015625 -149.96875 91.828125 -152.78125 C 94.640625 -155.59375 97.179688 -158.222656 99.453125 -160.671875 C 101.898438 -163.117188 103.9375 -165.179688 105.5625 -166.859375 C 107.195312 -168.535156 108.5625 -169.960938 109.65625 -171.140625 C 109.46875 -172.234375 109.304688 -173.6875 109.171875 -175.5 C 109.035156 -177.3125 108.832031 -179.625 108.5625 -182.4375 L 117.8125 -182.4375 C 117.632812 -183.53125 117.476562 -184.957031 117.34375 -186.71875 C 117.207031 -188.488281 117.003906 -190.691406 116.734375 -193.328125 L 131.421875 -193.328125 C 133.140625 -193.234375 134.59375 -193.1875 135.78125 -193.1875 L 138.765625 -193.1875 L 170.875 -193.328125 L 170.875 -171.6875 C 169.238281 -171.601562 167.785156 -171.5625 166.515625 -171.5625 C 165.253906 -171.5625 163.988281 -171.515625 162.71875 -171.421875 L 162.71875 -160.8125 C 158.539062 -160.71875 155 -160.554688 152.09375 -160.328125 C 149.195312 -160.097656 146.726562 -159.734375 144.6875 -159.234375 C 142.644531 -158.742188 140.828125 -158.046875 139.234375 -157.140625 C 137.648438 -156.234375 136 -155.097656 134.28125 -153.734375 C 132.007812 -151.828125 128.601562 -148.945312 124.0625 -145.09375 C 119.53125 -141.238281 113.820312 -136.179688 106.9375 -129.921875 L 99.859375 -122.984375 C 100.765625 -121.984375 101.71875 -120.914062 102.71875 -119.78125 C 103.71875 -118.65625 104.757812 -117.410156 105.84375 -116.046875 C 106.570312 -115.234375 107.34375 -114.347656 108.15625 -113.390625 C 108.96875 -112.441406 109.785156 -111.46875 110.609375 -110.46875 L 110.609375 -110.609375 C 114.597656 -105.890625 118.5625 -101.191406 122.5 -96.515625 C 126.445312 -91.847656 130.421875 -87.203125 134.421875 -82.578125 C 139.859375 -76.234375 144.4375 -70.925781 148.15625 -66.65625 C 151.875 -62.394531 154.6875 -59.222656 156.59375 -57.140625 C 158.039062 -55.597656 159.285156 -54.394531 160.328125 -53.53125 C 161.367188 -52.675781 162.523438 -52.019531 163.796875 -51.5625 C 165.066406 -51.101562 166.65625 -50.828125 168.5625 -50.734375 C 170.46875 -50.648438 173.007812 -50.609375 176.1875 -50.609375 Z M 169.65625 -44.078125 C 167.289062 -44.078125 165.40625 -44.097656 164 -44.140625 C 162.59375 -44.191406 161.320312 -44.488281 160.1875 -45.03125 C 159.0625 -45.570312 157.882812 -46.429688 156.65625 -47.609375 C 155.4375 -48.796875 153.828125 -50.476562 151.828125 -52.65625 C 149.828125 -54.738281 147.015625 -57.890625 143.390625 -62.109375 C 139.765625 -66.328125 135.09375 -71.742188 129.375 -78.359375 L 105.578125 -106.25 C 102.128906 -110.425781 99.109375 -114.03125 96.515625 -117.0625 C 93.929688 -120.101562 91.78125 -122.710938 90.0625 -124.890625 L 110.75 -145.578125 C 117.726562 -152.015625 123.503906 -157.203125 128.078125 -161.140625 C 132.660156 -165.085938 136.085938 -167.96875 138.359375 -169.78125 C 140.628906 -171.601562 142.578125 -173.035156 144.203125 -174.078125 C 145.835938 -175.117188 147.5625 -175.929688 149.375 -176.515625 C 151.1875 -177.109375 153.269531 -177.492188 155.625 -177.671875 C 157.988281 -177.859375 160.894531 -178 164.34375 -178.09375 L 164.34375 -186.796875 L 138.765625 -186.65625 C 137.492188 -186.65625 135.632812 -186.675781 133.1875 -186.71875 C 130.738281 -186.769531 127.65625 -186.796875 123.9375 -186.796875 C 124.125 -185.335938 124.238281 -183.992188 124.28125 -182.765625 C 124.320312 -181.546875 124.34375 -180.53125 124.34375 -179.71875 L 124.34375 -178.359375 L 114.6875 -167.203125 C 113.6875 -166.023438 112.320312 -164.523438 110.59375 -162.703125 C 108.875 -160.890625 106.75 -158.671875 104.21875 -156.046875 L 88.703125 -140.265625 C 82.628906 -134.097656 77.320312 -128.8125 72.78125 -124.40625 C 68.25 -120.007812 64.210938 -116.453125 60.671875 -113.734375 L 58.90625 -114.421875 L 58.90625 -144.484375 C 58.90625 -157.816406 59.316406 -166.796875 60.140625 -171.421875 C 60.492188 -172.691406 60.941406 -173.710938 61.484375 -174.484375 C 62.035156 -175.253906 62.921875 -175.816406 64.140625 -176.171875 C 65.367188 -176.535156 67.070312 -176.785156 69.25 -176.921875 C 71.425781 -177.066406 74.28125 -177.179688 77.8125 -177.265625 L 77.8125 -186.796875 C 66.03125 -186.429688 53.515625 -186.25 40.265625 -186.25 C 28.472656 -186.25 17.953125 -186.429688 8.703125 -186.796875 L 8.703125 -177.265625 C 16.679688 -176.816406 21.488281 -176.363281 23.125 -175.90625 C 24.125 -175.726562 24.894531 -175.34375 25.4375 -174.75 C 25.976562 -174.164062 26.382812 -173.144531 26.65625 -171.6875 C 26.9375 -170.238281 27.144531 -168.195312 27.28125 -165.5625 C 27.414062 -162.9375 27.53125 -159.492188 27.625 -155.234375 L 28.4375 -121.484375 L 28.4375 -81.90625 C 28.4375 -77.1875 28.117188 -69.429688 27.484375 -58.640625 C 27.210938 -55.191406 26.960938 -52.515625 26.734375 -50.609375 C 26.503906 -48.703125 25.84375 -47.316406 24.75 -46.453125 C 23.664062 -45.597656 21.898438 -45.03125 19.453125 -44.75 C 17.003906 -44.476562 13.421875 -44.253906 8.703125 -44.078125 L 8.703125 -34.5625 C 17.953125 -35.007812 28.429688 -35.234375 40.140625 -35.234375 C 53.472656 -35.234375 66.03125 -35.007812 77.8125 -34.5625 L 77.8125 -44.078125 C 73.644531 -44.171875 70.40625 -44.304688 68.09375 -44.484375 C 65.78125 -44.671875 64.257812 -44.941406 63.53125 -45.296875 C 62.625 -45.660156 61.898438 -46.066406 61.359375 -46.515625 C 60.816406 -46.972656 60.382812 -47.632812 60.0625 -48.5 C 59.75 -49.363281 59.523438 -50.539062 59.390625 -52.03125 C 59.253906 -53.53125 59.1875 -55.457031 59.1875 -57.8125 L 58.90625 -79.453125 L 58.90625 -103.9375 C 58.90625 -104.9375 58.972656 -105.6875 59.109375 -106.1875 C 59.242188 -106.6875 59.425781 -107.046875 59.65625 -107.265625 C 59.882812 -107.492188 60.132812 -107.609375 60.40625 -107.609375 L 61.21875 -107.609375 C 62.3125 -107.609375 63.488281 -107.203125 64.75 -106.390625 C 66.019531 -105.578125 67.835938 -103.898438 70.203125 -101.359375 C 70.296875 -101.265625 70.835938 -100.601562 71.828125 -99.375 C 72.828125 -98.15625 74.144531 -96.640625 75.78125 -94.828125 C 77.414062 -93.015625 79.207031 -90.972656 81.15625 -88.703125 C 83.101562 -86.429688 85.003906 -84.1875 86.859375 -81.96875 C 88.722656 -79.75 90.445312 -77.707031 92.03125 -75.84375 C 93.625 -73.988281 94.875 -72.515625 95.78125 -71.421875 L 117 -46.9375 C 119 -44.757812 120.65625 -42.625 121.96875 -40.53125 C 123.28125 -38.445312 124.4375 -36.457031 125.4375 -34.5625 C 128.25 -34.738281 131.035156 -34.847656 133.796875 -34.890625 C 136.566406 -34.941406 139.445312 -34.96875 142.4375 -34.96875 C 146.34375 -34.96875 150.539062 -34.941406 155.03125 -34.890625 C 159.519531 -34.847656 164.394531 -34.738281 169.65625 -34.5625 Z M 169.65625 -44.078125 "/></g></g></g><path stroke-linecap="butt" transform="matrix(0.75, 0, 0, 0.75, 25.320417, -52.572769)" fill="none" stroke-linejoin="miter" d="M 9.124862 386.91476 C 15.208196 386.91476 20.656113 385.128301 25.458196 381.550176 C 30.265488 378.018926 34.484238 373.7533 38.114447 368.742883 C 41.791531 363.732466 44.885281 359.029341 47.390489 354.633507 C 49.744656 350.237674 52.322781 343.946007 55.135281 335.768923 C 57.947782 327.586631 60.604032 318.716838 63.10924 309.159546 C 65.614449 299.649129 67.765491 290.649128 69.551949 282.164753 C 71.343616 273.727252 72.442574 267.081418 72.848824 262.227251 C 70.343616 263.711626 68.046741 265.29496 65.947782 266.98246 L 35.19778 294.279337 C 34.327988 295.149129 33.484238 296.149129 32.66653 297.274129 C 31.848822 298.446004 30.801947 299.544962 29.525905 300.571004 C 24.515488 305.581421 20.015488 310.591838 16.025904 315.597047 C 12.041529 320.659547 8.051945 326.232464 4.062361 332.315798 C 2.171736 335.024131 0.176945 338.477256 -1.916806 342.669965 C -4.010556 346.862674 -5.724098 351.310591 -7.057431 356.013716 C -8.437639 360.716841 -8.948056 365.367883 -8.588681 369.966842 C -8.281389 374.571009 -6.567848 378.555384 -3.453264 381.930384 C -0.739722 385.253301 3.452986 386.91476 9.124862 386.91476 Z M 16.333196 233.393916 C 19.452987 231.706416 23.109238 228.409541 27.301946 223.50329 C 31.489447 218.539748 35.890489 212.664748 40.489447 205.862664 C 45.088406 199.065789 49.588406 192.06058 53.98424 184.852246 C 58.432157 177.591829 62.473824 170.893912 66.104032 164.758495 C 69.781116 158.576203 72.671741 153.591828 74.765491 149.805369 C 77.2707 145.617869 78.984241 142.852244 79.906116 141.524118 C 80.874867 140.14391 83.025908 139.45641 86.348825 139.45641 C 88.036325 139.45641 89.286325 140.654327 90.104034 143.060577 C 90.973826 145.461619 91.614451 148.399119 92.020701 151.878286 C 92.432159 155.305369 92.635284 158.602245 92.635284 161.768911 C 92.635284 164.888703 92.635284 167.289745 92.635284 168.977245 L 92.635284 193.133497 C 92.635284 198.399122 92.380076 203.972039 91.869659 209.852248 C 91.359242 215.680373 90.869659 221.123082 90.411325 226.185582 C 89.999867 231.195999 89.796742 235.159541 89.796742 238.071 L 134.734245 211.998081 C 135.807162 211.383498 138.005079 209.930373 141.327995 207.628289 C 144.702996 205.326206 147.541538 204.175164 149.843621 204.175164 C 151.734246 204.175164 152.676955 205.326206 152.676955 207.628289 C 152.676955 209.060581 150.942579 211.055373 147.463413 213.607456 C 143.989454 216.112665 140.307162 218.414748 136.421745 220.508499 C 132.588412 222.607457 130.03112 224.065791 128.755078 224.883499 C 122.260286 228.461624 115.817577 232.294958 109.426952 236.3835 C 103.08841 240.425167 96.880076 244.53975 90.796742 248.732459 C 89.312367 249.805376 88.5207 250.701209 88.416534 251.414751 C 88.317575 252.128292 88.057159 253.638709 87.650909 255.940793 C 86.166534 266.216835 84.072783 277.847044 81.36445 290.83142 C 78.650908 303.815796 75.301949 316.466838 71.317574 328.789756 C 67.327991 341.159548 62.729032 351.539757 57.51549 359.925174 C 54.54674 365.59705 50.60924 371.196009 45.702989 376.716842 C 40.796739 382.289759 35.301947 386.888718 29.218613 390.518926 C 23.135279 394.201218 16.640487 396.03976 9.739445 396.03976 C 1.968611 396.03976 -4.526181 393.409552 -9.739723 388.143926 C -14.953265 382.930384 -17.56264 375.617884 -17.56264 366.211633 C -17.56264 359.310591 -15.770973 351.873091 -12.192848 343.893923 C -8.666806 335.972048 -3.937639 327.867881 1.994653 319.58663 C 7.97382 311.30538 14.416529 303.383504 21.317571 295.815795 C 28.270696 288.30017 35.19778 281.451211 42.098822 275.263711 C 48.999864 269.128293 55.187365 264.065793 60.656115 260.081418 C 61.682157 259.008501 62.598824 258.211626 63.416532 257.701209 C 64.286324 257.190793 65.333199 256.503293 66.562366 255.633501 C 69.525907 253.128292 71.676949 251.414751 73.005074 250.492876 C 74.385283 249.524126 75.176949 247.680375 75.380074 244.972042 C 76.661325 234.28975 77.807158 224.445999 78.8332 215.451207 C 79.906116 206.451206 80.697783 197.195997 81.2082 187.690788 C 81.718617 178.128287 81.973825 167.393912 81.973825 155.482453 C 81.36445 155.888703 79.624866 158.347036 76.760283 162.841828 C 73.947783 167.341828 70.755074 172.581412 67.176949 178.565788 C 63.645699 184.544955 60.301948 190.09183 57.130073 195.206414 C 54.010281 200.315789 51.812365 203.820998 50.536323 205.711623 C 47.416531 210.72204 43.609239 216.649123 39.109239 223.50329 C 34.609238 230.300166 30.265488 235.669958 26.07278 239.607458 C 22.083196 243.185583 18.432154 244.972042 15.109237 244.972042 C 11.734237 244.972042 8.895695 243.362667 6.593612 240.143917 C 4.296736 236.867875 3.145695 232.524124 3.145695 227.107457 C 3.145695 223.732457 3.551945 219.539749 4.369653 214.529332 C 5.239445 209.466831 6.494653 204.482456 8.13007 199.576206 C 9.81757 194.669955 11.760279 190.550163 13.958195 187.227246 C 16.156112 183.857455 18.505071 182.169954 21.010279 182.169954 C 24.588404 182.169954 26.380071 183.419955 26.380071 185.925163 C 26.380071 188.430372 25.536321 191.930372 23.848821 196.430372 C 22.213404 200.930372 20.551946 206.326206 18.864446 212.612665 C 17.176946 218.899124 16.333196 225.826207 16.333196 233.393916 Z M 16.333196 233.393916 " stroke="#48002c" stroke-width="23.5581" stroke-opacity="1" stroke-miterlimit="4"/><g fill="#8f135f" fill-opacity="1"><g transform="translate(25.320417, 143.177218)"><g><path d="M 6.828125 94.46875 C 11.378906 94.46875 15.460938 93.128906 19.078125 90.453125 C 22.691406 87.785156 25.875 84.566406 28.625 80.796875 C 31.375 77.035156 33.691406 73.503906 35.578125 70.203125 C 37.296875 66.898438 39.21875 62.1875 41.34375 56.0625 C 43.46875 49.9375 45.46875 43.300781 47.34375 36.15625 C 49.226562 29.007812 50.835938 22.253906 52.171875 15.890625 C 53.515625 9.535156 54.34375 4.550781 54.65625 0.9375 C 52.769531 2.039062 51.039062 3.21875 49.46875 4.46875 L 26.390625 24.96875 C 25.753906 25.59375 25.125 26.335938 24.5 27.203125 C 23.875 28.066406 23.085938 28.894531 22.140625 29.6875 C 18.367188 33.457031 14.988281 37.222656 12 40.984375 C 9.019531 44.753906 6.039062 48.914062 3.0625 53.46875 C 1.644531 55.507812 0.15625 58.101562 -1.40625 61.25 C -2.976562 64.394531 -4.273438 67.734375 -5.296875 71.265625 C -6.316406 74.796875 -6.707031 78.285156 -6.46875 81.734375 C -6.238281 85.191406 -4.945312 88.179688 -2.59375 90.703125 C -0.550781 93.210938 2.585938 94.46875 6.828125 94.46875 Z M 12.25 -20.734375 C 14.601562 -21.984375 17.347656 -24.453125 20.484375 -28.140625 C 23.628906 -31.835938 26.929688 -36.238281 30.390625 -41.34375 C 33.847656 -46.445312 37.222656 -51.707031 40.515625 -57.125 C 43.816406 -62.539062 46.84375 -67.566406 49.59375 -72.203125 C 52.34375 -76.835938 54.5 -80.566406 56.0625 -83.390625 C 57.945312 -86.535156 59.242188 -88.617188 59.953125 -89.640625 C 60.660156 -90.660156 62.269531 -91.171875 64.78125 -91.171875 C 66.039062 -91.171875 66.984375 -90.265625 67.609375 -88.453125 C 68.234375 -86.648438 68.703125 -84.453125 69.015625 -81.859375 C 69.335938 -79.265625 69.5 -76.789062 69.5 -74.4375 C 69.5 -72.082031 69.5 -70.28125 69.5 -69.03125 L 69.5 -50.890625 C 69.5 -46.960938 69.300781 -42.796875 68.90625 -38.390625 C 68.507812 -33.992188 68.15625 -29.910156 67.84375 -26.140625 C 67.53125 -22.378906 67.375 -19.398438 67.375 -17.203125 L 101.0625 -36.75 C 101.84375 -37.21875 103.488281 -38.316406 106 -40.046875 C 108.519531 -41.773438 110.644531 -42.640625 112.375 -42.640625 C 113.78125 -42.640625 114.484375 -41.773438 114.484375 -40.046875 C 114.484375 -38.953125 113.1875 -37.460938 110.59375 -35.578125 C 108.007812 -33.691406 105.265625 -31.960938 102.359375 -30.390625 C 99.453125 -28.816406 97.53125 -27.71875 96.59375 -27.09375 C 91.71875 -24.425781 86.882812 -21.5625 82.09375 -18.5 C 77.300781 -15.4375 72.628906 -12.332031 68.078125 -9.1875 C 66.984375 -8.40625 66.394531 -7.738281 66.3125 -7.1875 C 66.238281 -6.632812 66.039062 -5.492188 65.71875 -3.765625 C 64.625 3.929688 63.054688 12.644531 61.015625 22.375 C 58.972656 32.113281 56.457031 41.613281 53.46875 50.875 C 50.488281 60.144531 47.035156 67.921875 43.109375 74.203125 C 40.910156 78.441406 37.960938 82.640625 34.265625 86.796875 C 30.578125 90.960938 26.457031 94.421875 21.90625 97.171875 C 17.351562 99.921875 12.484375 101.296875 7.296875 101.296875 C 1.492188 101.296875 -3.367188 99.332031 -7.296875 95.40625 C -11.222656 91.476562 -13.1875 85.984375 -13.1875 78.921875 C -13.1875 73.734375 -11.851562 68.15625 -9.1875 62.1875 C -6.519531 56.21875 -2.945312 50.128906 1.53125 43.921875 C 6.007812 37.722656 10.835938 31.796875 16.015625 26.140625 C 21.203125 20.492188 26.382812 15.351562 31.5625 10.71875 C 36.75 6.082031 41.382812 2.273438 45.46875 -0.703125 C 46.25 -1.492188 46.953125 -2.082031 47.578125 -2.46875 C 48.210938 -2.863281 49 -3.375 49.9375 -4 C 52.132812 -5.882812 53.742188 -7.179688 54.765625 -7.890625 C 55.785156 -8.597656 56.375 -9.972656 56.53125 -12.015625 C 57.476562 -20.023438 58.34375 -27.40625 59.125 -34.15625 C 59.914062 -40.90625 60.503906 -47.851562 60.890625 -55 C 61.285156 -62.144531 61.484375 -70.195312 61.484375 -79.15625 C 61.015625 -78.84375 59.71875 -76.992188 57.59375 -73.609375 C 55.476562 -70.234375 53.082031 -66.304688 50.40625 -61.828125 C 47.738281 -57.359375 45.226562 -53.195312 42.875 -49.34375 C 40.519531 -45.5 38.867188 -42.875 37.921875 -41.46875 C 35.566406 -37.695312 32.703125 -33.257812 29.328125 -28.15625 C 25.953125 -23.050781 22.691406 -19.003906 19.546875 -16.015625 C 16.566406 -13.347656 13.820312 -12.015625 11.3125 -12.015625 C 8.789062 -12.015625 6.664062 -13.226562 4.9375 -15.65625 C 3.21875 -18.09375 2.359375 -21.351562 2.359375 -25.4375 C 2.359375 -27.957031 2.671875 -31.097656 3.296875 -34.859375 C 3.921875 -38.628906 4.863281 -42.359375 6.125 -46.046875 C 7.382812 -49.742188 8.835938 -52.847656 10.484375 -55.359375 C 12.128906 -57.867188 13.894531 -59.125 15.78125 -59.125 C 18.445312 -59.125 19.78125 -58.179688 19.78125 -56.296875 C 19.78125 -54.410156 19.148438 -51.78125 17.890625 -48.40625 C 16.640625 -45.03125 15.382812 -40.988281 14.125 -36.28125 C 12.875 -31.570312 12.25 -26.390625 12.25 -20.734375 Z M 12.25 -20.734375 "/></g></g></g><path stroke-linecap="butt" transform="matrix(0.75, 0, 0, 0.75, 47.120977, 37.607272)" fill="none" stroke-linejoin="miter" d="M 187.948084 283.705948 L 279.057465 85.231977 L 358.078304 85.231977 L 358.078304 92.06531 L 355.40122 92.06531 C 343.338719 92.06531 334.385594 94.22156 328.536635 98.528852 C 322.755385 102.773644 319.859551 110.955937 319.859551 123.080937 L 319.859551 307.523658 C 319.859551 318.659075 322.630385 326.570534 328.166843 331.247618 C 333.70851 335.862201 343.031428 338.169493 356.140804 338.169493 L 358.078304 338.169493 L 358.078304 344.997619 L 240.843921 344.997619 L 240.843921 338.169493 L 244.255379 338.169493 C 256.135589 338.169493 264.906423 335.862201 270.567881 331.247618 C 276.22934 326.570534 279.057465 318.414284 279.057465 306.784074 L 279.057465 127.237188 L 278.32309 127.237188 L 178.437667 344.997619 L 171.698083 344.997619 L 71.817868 127.237188 L 71.078285 127.237188 L 71.078285 307.153866 C 71.078285 319.273659 73.849118 327.429909 79.390785 331.612201 C 84.927244 335.737201 94.250161 337.924701 107.359537 338.169493 L 107.359537 344.997619 L 16.244948 344.997619 L 16.244948 338.169493 L 18.55224 338.169493 C 30.61474 338.169493 39.541824 335.981993 45.323075 331.612201 C 51.172033 327.185117 54.093909 318.903867 54.093909 306.784074 L 54.093909 129.450729 C 54.093909 117.63302 51.047033 108.773645 44.958491 102.867394 C 38.927241 96.898644 29.354324 93.294477 16.244948 92.06531 L 16.244948 85.231977 L 95.635578 85.231977 Z M 187.948084 283.705948 " stroke="#000000" stroke-width="28.358475" stroke-opacity="1" stroke-miterlimit="4"/><g fill="#ffffff" fill-opacity="1"><g transform="translate(47.120977, 296.357255)"><g><path d="M 140.9375 -45.9375 L 209.28125 -194.8125 L 268.546875 -194.8125 L 268.546875 -189.71875 L 266.5625 -189.71875 C 257.488281 -189.71875 250.773438 -188.109375 246.421875 -184.890625 C 242.078125 -181.679688 239.90625 -175.535156 239.90625 -166.453125 L 239.90625 -28.078125 C 239.90625 -19.753906 241.984375 -13.84375 246.140625 -10.34375 C 250.304688 -6.851562 257.300781 -5.109375 267.125 -5.109375 L 268.546875 -5.109375 L 268.546875 0 L 180.640625 0 L 180.640625 -5.109375 L 183.1875 -5.109375 C 192.070312 -5.109375 198.640625 -6.851562 202.890625 -10.34375 C 207.148438 -13.84375 209.28125 -19.941406 209.28125 -28.640625 L 209.28125 -163.34375 L 208.71875 -163.34375 L 133.84375 0 L 128.75 0 L 53.875 -163.34375 L 53.3125 -163.34375 L 53.3125 -28.359375 C 53.3125 -19.285156 55.390625 -13.1875 59.546875 -10.0625 C 63.710938 -6.945312 70.707031 -5.296875 80.53125 -5.109375 L 80.53125 0 L 12.1875 0 L 12.1875 -5.109375 L 13.890625 -5.109375 C 22.960938 -5.109375 29.671875 -6.757812 34.015625 -10.0625 C 38.367188 -13.375 40.546875 -19.566406 40.546875 -28.640625 L 40.546875 -161.640625 C 40.546875 -170.523438 38.273438 -177.1875 33.734375 -181.625 C 29.203125 -186.070312 22.019531 -188.769531 12.1875 -189.71875 L 12.1875 -194.8125 L 71.75 -194.8125 Z M 140.9375 -45.9375 "/></g></g></g></svg>